<?xml version="1.0" standalone="no"?>
<!DOCTYPE svg PUBLIC "-//W3C//DTD SVG 20010904//EN"
 "http://www.w3.org/TR/2001/REC-SVG-20010904/DTD/svg10.dtd">
<svg version="1.0" xmlns="http://www.w3.org/2000/svg"
 width="765.000000pt" height="765.000000pt" viewBox="0 0 765.000000 765.000000"
 preserveAspectRatio="xMidYMid meet">
<metadata>
Created by potrace 1.11, written by Peter Selinger 2001-2013
</metadata>
<g transform="translate(0.000000,765.000000) scale(0.100000,-0.100000)"
fill="#000000" stroke="none">
<path d="M5265 6627 c-109 -33 -200 -112 -248 -215 l-32 -67 -3 -1780 -2
-1780 -498 -498 -497 -497 -881 0 c-976 0 -937 2 -1040 -66 -115 -76 -176
-198 -170 -344 5 -143 91 -270 225 -334 l66 -31 985 -2 c581 -1 1009 2 1043 8
133 22 116 7 823 714 381 381 661 669 677 695 54 94 52 2 51 2011 -1 1438 -4
1874 -14 1909 -30 111 -114 210 -220 258 -65 29 -199 39 -265 19z"/>
<path d="M2911 5624 c-25 -9 -63 -27 -85 -41 -43 -27 -831 -811 -879 -874 -15
-20 -38 -69 -52 -109 l-25 -73 0 -1048 c0 -1047 0 -1049 22 -1106 38 -105 103
-179 194 -224 58 -28 78 -32 167 -35 178 -6 326 99 379 268 17 56 18 114 18
996 l0 937 273 273 273 272 521 0 c493 0 524 1 584 20 310 98 364 525 90 699
-97 61 -92 61 -795 61 -552 -1 -647 -3 -685 -16z"/>
</g>
</svg>
