<?xml version="1.0" standalone="no"?>
<!DOCTYPE svg PUBLIC "-//W3C//DTD SVG 20010904//EN"
 "http://www.w3.org/TR/2001/REC-SVG-20010904/DTD/svg10.dtd">
<svg version="1.0" xmlns="http://www.w3.org/2000/svg"
 width="512.000000pt" height="512.000000pt" viewBox="0 0 512.000000 512.000000"
 preserveAspectRatio="xMidYMid meet">
<metadata>
Created by potrace 1.11, written by Peter Selinger 2001-2013
</metadata>
<g transform="translate(0.000000,512.000000) scale(0.100000,-0.100000)"
fill="#000000" stroke="none">
<path d="M3344 4818 c-4 -6 -9 -52 -10 -100 -2 -48 -6 -93 -10 -100 -4 -6 -3
-8 3 -5 6 4 9 -8 8 -30 -1 -19 -9 -39 -16 -44 -12 -7 -11 -9 1 -9 12 0 15 -12
15 -47 0 -27 -4 -54 -8 -60 -5 -7 -5 -13 0 -13 4 0 8 -18 9 -40 0 -29 -4 -40
-15 -41 -12 0 -10 -3 4 -8 19 -8 19 -8 0 -19 -15 -8 -16 -11 -5 -12 12 0 15
-12 15 -47 0 -27 -4 -54 -8 -60 -5 -8 -3 -13 5 -13 8 -1 5 -7 -7 -17 -13 -10
-15 -14 -4 -10 13 4 16 -2 15 -34 -1 -27 -5 -39 -16 -40 -13 0 -13 -1 0 -7 17
-8 22 -112 6 -112 -6 0 -5 -5 2 -12 15 -15 16 -38 1 -38 -5 0 -8 4 -4 9 3 5 1
12 -3 15 -5 3 -8 -7 -7 -21 0 -15 7 -29 14 -31 17 -6 -38 -42 -64 -42 -17 0
-17 2 -5 10 9 6 10 10 3 10 -6 0 -11 12 -11 28 1 46 -1 48 -39 47 -24 -1 -43
5 -51 14 -10 13 -11 13 -7 1 4 -12 -4 -15 -35 -17 -26 -1 -38 3 -33 10 4 6 1
7 -8 1 -8 -4 -33 -9 -56 -10 -35 -2 -41 0 -36 14 4 13 1 12 -10 -3 -14 -17
-18 -18 -27 -5 -5 8 -10 11 -10 5 0 -5 -27 -10 -59 -11 -50 -1 -59 1 -54 15 4
13 3 14 -5 2 -13 -18 -67 -28 -56 -10 5 8 3 9 -7 3 -8 -4 -33 -9 -56 -10 -35
-2 -41 0 -36 14 4 13 1 12 -10 -3 -14 -17 -18 -18 -27 -5 -5 8 -10 11 -10 5 0
-6 -34 -10 -79 -11 -50 0 -78 3 -74 9 4 6 1 7 -8 1 -8 -5 -55 -9 -105 -9 -79
-1 -91 1 -87 14 4 14 3 14 -6 1 -8 -12 -38 -15 -145 -15 -83 -1 -132 3 -129 9
4 5 1 6 -8 0 -23 -14 -62 -17 -53 -3 5 9 3 9 -7 3 -8 -5 -39 -9 -69 -10 -84
-2 -92 -3 -85 -14 3 -5 2 -10 -3 -10 -5 0 -9 -7 -9 -15 0 -8 3 -15 6 -15 11 0
2 -112 -10 -126 -9 -11 -9 -13 2 -9 11 4 14 -6 13 -43 -1 -54 -10 -76 -27 -66
-7 4 -8 3 -4 -2 5 -5 14 -9 20 -9 5 0 11 -10 12 -22 1 -13 -2 -23 -6 -23 -5 0
-5 -7 -2 -17 5 -12 3 -14 -8 -9 -8 4 -5 0 5 -8 15 -12 16 -16 5 -16 -12 0 -12
-2 1 -10 11 -7 11 -10 2 -10 -10 0 -10 -5 -1 -22 10 -18 9 -20 -5 -15 -8 3
-18 1 -22 -5 -4 -6 -3 -8 3 -5 6 4 14 0 17 -9 9 -25 7 -41 -4 -24 -6 9 -10 10
-10 3 0 -9 -88 -12 -361 -12 -309 -1 -362 -3 -375 -16 -9 -8 -11 -15 -5 -15
15 0 14 -53 -1 -69 -7 -8 -8 -11 -2 -8 14 8 15 -76 0 -85 -8 -6 -8 -8 1 -8 6
0 11 -13 11 -30 -1 -16 -5 -30 -10 -30 -4 0 -8 -5 -8 -11 0 -5 4 -7 10 -4 5 3
9 -9 8 -30 -1 -19 -5 -35 -10 -35 -4 0 -8 -5 -8 -11 0 -5 4 -7 10 -4 5 3 9 -9
8 -30 -1 -19 -5 -35 -10 -35 -4 0 -8 -5 -8 -11 0 -5 4 -7 10 -4 5 3 9 -9 8
-30 -1 -19 -5 -35 -10 -35 -4 0 -8 -5 -8 -11 0 -5 4 -7 10 -4 16 10 9 -68 -9
-90 -14 -17 -14 -18 0 -7 14 10 16 7 17 -23 1 -22 -3 -35 -11 -35 -7 0 -8 -3
-2 -8 16 -11 19 -46 3 -36 -10 6 -10 5 -2 -7 17 -21 14 -101 -5 -124 -14 -17
-14 -18 0 -7 14 10 16 7 17 -23 1 -22 -3 -35 -11 -35 -7 0 -8 -3 -2 -8 16 -11
19 -46 3 -36 -10 6 -10 5 -2 -7 17 -21 14 -101 -5 -124 -14 -17 -14 -18 0 -7
14 10 16 7 17 -23 1 -22 -3 -35 -11 -35 -9 0 -9 -2 -1 -8 14 -8 16 -62 3 -62
-5 0 -9 -5 -9 -11 0 -5 4 -7 10 -4 5 3 9 -9 8 -30 -1 -19 -5 -35 -10 -35 -4 0
-8 -5 -8 -11 0 -5 4 -7 10 -4 5 3 9 -9 8 -30 -1 -19 -5 -35 -10 -35 -4 0 -8
-5 -8 -11 0 -5 4 -7 10 -4 5 3 9 -9 8 -30 -1 -19 -5 -35 -10 -35 -4 0 -8 -5
-8 -11 0 -5 5 -7 10 -4 6 3 10 -3 10 -15 0 -12 -4 -19 -8 -16 -5 3 -9 -1 -9
-9 0 -8 3 -12 7 -10 4 2 7 -20 8 -50 0 -35 -4 -55 -11 -55 -8 0 -8 -3 -2 -8
16 -11 19 -46 3 -36 -10 6 -10 5 -2 -7 17 -21 14 -101 -5 -124 -14 -17 -14
-18 0 -7 14 10 16 7 17 -23 1 -22 -3 -35 -11 -35 -7 0 -8 -3 -2 -8 16 -11 19
-46 3 -36 -10 6 -10 5 -2 -7 15 -18 15 -100 0 -118 -8 -11 -8 -13 2 -7 7 4 12
1 12 -9 0 -9 -5 -13 -11 -10 -6 4 -5 -2 2 -13 9 -15 10 -24 2 -34 -9 -10 -2
-13 37 -11 27 0 54 4 59 8 6 3 11 1 11 -5 0 -6 5 -8 12 -4 6 4 8 3 5 -3 -3 -5
-20 -9 -37 -8 -17 1 -34 -3 -37 -8 -3 -6 -1 -7 5 -3 7 4 12 3 12 -2 0 -5 7 -9
15 -9 8 0 12 4 9 8 -6 11 38 7 53 -4 9 -6 18 -5 27 2 10 8 16 9 21 1 3 -5 1
-10 -4 -10 -6 0 -11 -5 -11 -12 0 -9 3 -9 12 0 15 15 32 16 23 2 -3 -5 -1 -10
5 -10 7 0 9 8 4 23 -3 12 -3 19 1 15 5 -4 15 -2 23 5 16 13 114 18 106 5 -3
-4 2 -8 11 -8 9 0 14 3 12 8 -3 4 12 8 34 8 21 1 39 -3 39 -7 0 -5 -3 -8 -7
-8 -5 1 -10 0 -13 -1 -21 -8 -39 -7 -34 2 5 7 2 8 -5 3 -9 -5 -9 -11 -3 -17 6
-6 8 -17 5 -24 -3 -8 0 -14 6 -14 6 0 10 6 8 13 -1 6 6 11 15 11 11 -1 14 4
11 14 -4 10 -2 13 5 8 6 -3 15 2 21 11 8 14 10 15 11 3 0 -12 2 -13 9 -1 7 12
12 11 30 -1 11 -8 18 -18 14 -22 -10 -10 -12 -35 -3 -41 5 -3 7 3 5 12 -3 22
14 45 27 37 6 -4 5 -10 -3 -16 -10 -7 -8 -8 8 -3 12 3 24 1 28 -5 3 -5 10 -10
16 -10 5 0 1 8 -8 19 -10 10 -22 18 -27 17 -5 -1 -11 6 -13 14 -4 12 -3 12 5
1 7 -9 12 -10 16 -2 9 14 26 14 26 0 0 -5 -5 -7 -12 -3 -7 5 -8 3 -3 -6 6 -10
11 -9 22 5 9 14 13 15 13 4 0 -8 3 -10 8 -4 9 13 82 16 82 3 0 -5 -5 -6 -12
-2 -7 4 -8 3 -4 -4 5 -8 -1 -11 -18 -10 -13 1 -22 6 -19 11 3 5 -4 4 -14 -2
-11 -6 -23 -7 -27 -4 -10 10 -7 -10 4 -27 8 -13 10 -12 10 3 0 22 17 22 23 -1
4 -15 5 -15 6 0 1 11 7 15 20 11 13 -3 24 2 33 16 13 21 33 28 41 14 2 -5 2
-3 1 4 -3 12 20 36 27 28 3 -2 5 6 5 19 0 18 -4 22 -20 19 -21 -4 -21 -4 -2
11 11 9 20 26 22 38 1 13 3 27 3 31 1 5 5 5 11 2 5 -3 10 -1 10 5 0 6 -6 10
-12 9 -30 -4 -49 2 -43 12 4 6 13 8 21 5 8 -3 11 0 8 9 -3 8 -11 13 -17 11 -7
-1 -8 -1 -4 2 4 2 3 10 -4 18 -14 18 0 18 23 0 10 -7 15 -16 11 -19 -3 -4 -4
-7 -1 -7 3 0 12 8 19 17 8 9 9 14 2 10 -6 -4 -24 4 -40 19 -15 14 -22 23 -15
19 13 -6 17 7 5 18 -12 13 -9 59 4 64 7 3 13 9 13 15 0 5 -4 7 -9 3 -5 -3 -12
-1 -16 5 -3 5 -2 10 2 10 5 0 18 7 29 16 18 15 18 15 -3 5 -14 -7 -24 -8 -28
-1 -3 5 1 10 9 10 17 0 17 1 21 39 1 13 9 27 16 32 9 6 10 9 2 9 -15 0 -26
-17 -27 -41 -1 -11 -5 -18 -11 -17 -16 5 -13 37 6 54 19 17 16 45 -4 40 -7 -1
-8 -1 -4 2 4 2 3 10 -4 18 -14 18 0 18 23 0 10 -7 15 -16 11 -19 -3 -4 -4 -7
-1 -7 3 0 12 8 19 17 8 9 9 14 2 10 -6 -4 -24 4 -40 19 -15 14 -22 23 -15 19
14 -7 17 11 3 19 -13 8 -2 48 17 64 10 8 11 12 4 12 -9 0 -10 5 -2 19 5 11 10
26 9 33 0 7 -5 1 -11 -14 -5 -16 -14 -28 -20 -28 -7 0 -7 4 1 13 8 10 7 17 -2
27 -9 10 -9 11 1 6 13 -8 17 10 4 18 -11 7 -7 52 4 49 5 -1 17 -5 27 -8 10 -4
17 -3 17 4 0 6 -3 10 -7 9 -16 -4 -53 14 -47 23 3 6 11 6 18 2 7 -4 3 0 -7 10
-11 9 -14 17 -8 17 8 0 9 5 1 19 -7 13 -7 22 0 26 5 3 10 11 10 16 0 6 -5 7
-11 3 -6 -3 -4 5 5 18 9 14 13 27 10 30 -3 4 -1 15 5 26 8 15 7 21 -3 25 -9 4
-12 0 -9 -13 3 -10 1 -20 -4 -23 -5 -3 -9 10 -9 29 0 33 9 44 21 24 3 -5 12
-10 18 -10 7 0 6 4 -3 10 -16 10 -21 41 -7 51 5 3 2 9 -6 12 -11 4 -15 0 -12
-13 2 -11 0 -22 -4 -24 -10 -6 -6 82 4 92 4 4 5 1 1 -5 -5 -9 -2 -11 10 -6 14
5 13 8 -6 18 -15 8 -19 15 -11 19 6 4 11 1 11 -6 0 -8 5 -6 11 5 6 10 8 23 5
30 -2 7 -5 5 -5 -5 -1 -12 -6 -15 -17 -11 -13 5 -13 7 -2 14 11 8 11 10 -1 18
-11 7 -11 9 0 14 12 5 11 8 -1 17 -13 10 -12 11 4 6 16 -6 17 -4 5 10 -16 19
-19 53 -6 61 6 4 7 1 2 -8 -6 -11 -5 -12 5 -2 16 15 23 46 9 37 -5 -3 -7 -10
-4 -15 3 -5 -1 -6 -10 -2 -13 5 -14 7 -3 14 11 7 10 11 -2 19 -13 8 -13 10 0
10 10 0 11 3 3 11 -8 8 -8 20 -1 40 7 21 7 33 -1 43 -8 10 -9 16 -1 21 9 6 14
0 11 -17 0 -4 9 -4 22 -2 12 3 28 6 36 6 10 1 9 5 -4 15 -10 7 -16 16 -12 19
4 4 13 2 20 -5 11 -9 20 -7 38 9 13 10 22 20 19 21 -24 5 -48 4 -44 -2 2 -4 0
-11 -6 -14 -6 -4 -9 -1 -8 6 2 6 -3 14 -10 16 -7 3 -11 1 -10 -4 2 -4 -1 -9
-6 -11 -6 -1 -11 4 -12 11 -1 10 11 13 45 13 25 -1 49 3 53 9 5 7 8 6 8 -2 0
-6 9 -9 20 -6 11 3 20 0 20 -6 0 -5 -6 -8 -14 -5 -8 3 -19 -3 -25 -15 -10 -18
-9 -20 6 -14 13 5 15 2 10 -13 -7 -19 -7 -19 8 0 8 11 15 23 15 26 0 4 7 7 15
7 19 0 19 -7 -2 -22 -14 -10 -11 -12 16 -10 18 1 37 8 42 16 5 8 9 10 9 5 0
-6 5 -5 12 2 7 7 17 12 22 12 6 0 5 -5 -2 -12 -7 -7 -12 -16 -12 -22 0 -5 6
-1 14 9 8 11 12 25 9 32 -3 7 0 13 7 13 6 0 8 -4 5 -10 -3 -5 -1 -10 6 -10 7
0 5 -9 -7 -22 -19 -23 -19 -23 2 -5 11 9 23 15 26 12 3 -3 8 1 11 9 4 10 1 13
-9 9 -7 -3 -14 0 -14 6 0 14 37 15 42 0 2 -7 11 -7 28 1 23 9 23 10 3 6 -23
-4 -31 8 -13 19 6 4 9 26 6 51 -4 44 1 53 20 34 7 -7 11 -6 11 4 0 8 -5 12
-10 9 -6 -4 -8 0 -4 10 3 9 -1 23 -9 32 -9 8 -11 15 -5 15 6 0 11 7 11 15 0 8
5 15 11 15 5 0 7 5 3 11 -4 8 -11 4 -19 -10 -10 -20 -11 -17 -11 23 1 47 5 53
22 36 7 -7 11 -6 11 4 0 8 -4 13 -9 10 -4 -3 -8 0 -8 6 0 6 -4 9 -8 6 -5 -3
-9 1 -9 9 0 8 4 12 9 9 4 -3 8 -1 8 5 0 5 -6 12 -12 14 -10 4 -10 6 0 6 6 1
12 9 12 19 0 14 -2 15 -10 2 -7 -12 -9 -10 -7 8 1 17 6 21 21 16 16 -5 17 -4
5 9 -8 8 -17 13 -21 11 -8 -5 -5 17 5 33 4 6 1 14 -5 16 -10 4 -9 6 1 6 11 1
11 4 1 17 -8 8 -9 14 -4 13 23 -4 26 2 8 17 -18 14 -17 14 6 3 41 -21 52 -20
45 4 -4 13 -3 17 2 11 12 -17 54 -28 51 -14 -2 7 5 14 15 15 10 2 14 -1 11 -7
-4 -6 -1 -8 7 -6 8 3 13 11 11 18 -2 10 0 11 11 2 8 -7 17 -8 21 -4 4 4 6 1 4
-7 -1 -7 3 -16 11 -19 8 -2 11 0 7 6 -3 6 -2 13 3 16 5 4 13 1 17 -5 5 -8 3
-9 -6 -4 -8 5 -11 4 -6 -3 4 -6 13 -9 21 -6 8 4 12 11 8 18 -4 6 0 6 9 -2 13
-10 17 -10 21 0 4 10 6 10 6 1 1 -7 6 -13 12 -13 5 0 8 4 4 9 -3 5 0 13 6 17
7 4 9 3 5 -4 -3 -6 -2 -13 4 -17 5 -3 10 -1 10 6 0 7 6 4 14 -7 10 -12 11 -23
5 -31 -7 -7 -6 -14 2 -19 7 -4 9 -3 6 3 -4 6 1 17 10 24 14 12 15 11 9 -11
l-8 -25 17 23 c23 31 39 27 19 -5 -11 -19 -11 -22 -2 -11 8 10 17 15 20 13 3
-3 11 1 18 10 15 18 31 20 27 3 -1 -6 6 -13 16 -14 12 -1 13 0 2 3 -8 2 -13 9
-10 14 10 16 25 10 35 -13 8 -21 9 -21 10 -3 0 17 2 17 10 5 8 -13 10 -13 10
2 0 13 4 14 24 5 14 -7 22 -18 19 -27 -3 -11 -2 -10 6 2 8 11 21 16 41 13 17
-2 30 1 30 6 0 6 -10 8 -22 5 -13 -3 -17 -3 -10 0 6 3 12 10 12 15 0 6 -9 4
-21 -4 -20 -15 -63 -12 -54 3 3 5 0 12 -6 16 -8 5 -9 3 -4 -7 5 -8 5 -11 0 -7
-4 4 -17 3 -28 -3 -15 -9 -18 -8 -12 2 5 8 4 10 -3 5 -8 -5 -10 -1 -5 9 4 13
8 14 14 4 6 -10 11 -10 22 -1 12 10 18 10 30 -3 21 -21 26 -19 21 8 -3 14 -2
17 3 7 10 -19 33 -24 33 -8 0 6 7 3 15 -8 15 -19 15 -19 9 1 -5 16 -4 17 5 5
10 -13 12 -13 21 0 9 13 10 13 10 0 0 -13 1 -13 10 0 7 11 10 11 10 2 0 -7 5
-10 10 -7 6 4 7 12 3 18 -4 7 0 6 10 -2 9 -7 17 -10 17 -6 0 4 7 2 15 -5 12
-10 15 -10 15 0 0 7 10 0 23 -16 12 -16 21 -33 19 -38 -2 -5 3 -5 10 1 7 6 27
10 44 8 31 -2 42 17 23 41 -5 7 -3 11 6 11 8 0 12 -4 9 -9 -8 -12 29 -6 39 7
5 6 7 3 3 -7 -3 -12 0 -18 9 -18 7 0 17 -5 21 -11 5 -9 -1 -10 -20 -5 -16 4
-25 3 -22 -2 3 -5 17 -12 31 -14 14 -3 23 -3 20 0 -3 3 1 12 9 21 8 9 16 20
18 26 5 15 39 17 57 3 9 -7 13 -8 9 -4 -5 5 2 14 15 21 12 6 21 17 20 23 -3
13 13 17 20 5 2 -5 2 -2 0 6 -2 8 2 11 11 8 20 -8 15 25 -7 41 -9 7 -15 18
-12 23 4 5 1 9 -5 9 -6 0 -8 -11 -6 -24 3 -18 1 -23 -10 -19 -16 6 -17 12 -4
33 6 9 5 20 -3 29 -9 12 -9 13 1 7 6 -4 12 -2 12 3 0 6 -6 11 -12 11 -10 0 -9
3 1 9 9 6 10 11 2 15 -7 5 -8 13 -2 24 6 11 6 24 0 35 -6 9 -6 17 -2 17 5 0 9
9 10 20 1 13 -2 18 -9 14 -7 -4 -8 -2 -4 5 4 6 11 9 16 6 5 -3 12 0 15 6 4 5
13 8 19 6 7 -3 13 1 13 8 0 7 -6 11 -13 8 -15 -6 -28 13 -14 22 5 3 10 2 10
-4 0 -5 9 -8 19 -6 18 3 23 -16 8 -31 -4 -4 -2 -13 4 -21 14 -16 -3 -17 -19
-1 -9 9 -15 9 -24 0 -14 -14 -19 -62 -6 -62 5 0 6 -6 1 -12 -12 -21 -12 -38 0
-38 7 0 5 -5 -3 -10 -12 -8 -12 -10 -1 -10 11 0 11 -3 1 -15 -10 -12 -8 -13
11 -10 23 5 42 25 33 34 -3 3 -9 -1 -13 -8 -6 -9 -11 -10 -15 -2 -4 6 -5 11
-1 11 3 0 1 8 -4 19 -6 10 -7 21 -3 25 3 4 6 19 7 33 0 15 5 28 12 30 8 3 10
-6 6 -29 -8 -55 -7 -68 8 -68 8 0 7 6 -2 17 -12 14 -12 15 0 9 10 -7 12 -4 7
12 -4 11 -3 23 1 25 5 3 8 -23 8 -59 0 -46 -3 -63 -12 -60 -18 7 -27 -14 -14
-27 9 -9 11 -8 8 3 -2 8 -2 12 0 7 3 -4 8 -5 12 -3 14 9 6 -119 -8 -130 -11
-9 -12 -12 -1 -19 9 -6 11 -4 5 6 -5 8 -4 11 0 6 13 -12 14 -87 1 -80 -6 4 -5
0 1 -8 10 -12 10 -18 1 -27 -9 -9 -9 -12 0 -12 10 0 10 -5 1 -21 -6 -12 -7
-19 -2 -16 11 7 10 -54 -1 -72 -4 -6 -3 -11 3 -11 9 0 7 -37 -4 -68 -3 -7 -1
-11 3 -8 10 6 6 -139 -4 -155 -4 -7 -3 -9 3 -6 6 4 9 -8 8 -30 -1 -19 -9 -39
-16 -44 -11 -7 -11 -9 3 -9 16 0 17 -27 3 -68 -3 -7 -1 -11 4 -8 4 3 7 -11 6
-31 -1 -19 -9 -39 -16 -44 -11 -7 -11 -9 3 -9 16 0 17 -27 3 -68 -3 -7 -1 -11
4 -8 4 3 7 -11 6 -31 -1 -19 -9 -39 -16 -44 -11 -7 -11 -9 3 -9 16 0 17 -27 3
-68 -3 -7 -1 -11 4 -8 4 3 7 -11 6 -31 -1 -19 -9 -39 -16 -44 -12 -7 -11 -9 1
-9 21 0 19 -138 -1 -151 -11 -7 -11 -9 3 -9 16 0 17 -27 3 -68 -3 -7 -1 -11 4
-8 4 3 7 -11 6 -31 -1 -19 -9 -39 -16 -44 -12 -7 -11 -9 1 -9 12 0 15 -12 15
-47 0 -27 -4 -54 -8 -60 -5 -7 -5 -13 0 -13 4 0 8 -18 9 -40 0 -29 -4 -40 -15
-41 -12 0 -10 -3 4 -8 19 -8 19 -8 0 -19 -15 -8 -16 -11 -5 -12 12 0 15 -12
15 -48 0 -26 -4 -53 -8 -59 -5 -8 -3 -13 5 -13 8 -1 5 -7 -7 -17 -14 -11 -15
-14 -4 -10 14 5 17 -1 15 -31 0 -22 -7 -40 -16 -44 -13 -6 -13 -7 0 -7 13 -1
15 -14 14 -67 -1 -36 -7 -71 -13 -78 -6 -8 -9 -20 -6 -28 5 -11 -1 -15 -22
-14 -15 0 -31 6 -35 11 -5 7 -8 7 -8 0 0 -6 -26 -11 -59 -11 -33 0 -57 4 -54
9 3 5 -4 4 -15 -2 -22 -11 -49 -11 -69 2 -6 4 -15 3 -18 -3 -4 -6 -14 -10 -23
-9 -10 1 -31 1 -48 0 -30 -1 -31 -3 -30 -44 1 -30 -3 -41 -12 -39 -8 1 -11 -2
-7 -8 3 -6 11 -8 16 -5 10 7 7 -44 -4 -62 -4 -7 -3 -14 3 -18 7 -4 6 -13 -1
-27 -6 -11 -7 -18 -2 -15 5 3 8 -28 8 -68 0 -41 -3 -68 -7 -62 -6 9 -8 9 -8 0
0 -6 3 -14 8 -17 13 -8 6 -87 -8 -96 -8 -5 -17 -7 -20 -5 -4 2 -7 -2 -7 -10 0
-11 5 -10 24 2 14 10 23 11 23 4 0 -6 -5 -11 -11 -11 -5 0 -7 -4 -4 -10 9 -15
-48 -12 -64 2 -11 10 -13 10 -7 1 5 -9 0 -13 -14 -13 -14 0 -19 4 -14 12 6 10
5 10 -7 1 -21 -17 -483 -18 -473 -1 6 10 5 10 -7 1 -21 -17 -323 -18 -313 -1
6 10 5 10 -7 1 -21 -17 -243 -18 -233 -1 6 10 5 10 -7 1 -11 -9 -69 -12 -197
-12 -148 0 -185 -3 -197 -15 -11 -11 -12 -15 -3 -18 10 -4 10 -10 1 -31 -7
-14 -9 -28 -5 -31 10 -6 8 -99 -3 -116 -5 -7 -4 -11 1 -8 5 4 10 -9 10 -28 1
-19 -3 -34 -7 -34 -5 0 -9 -5 -9 -11 0 -5 4 -8 8 -5 10 6 8 -56 -3 -74 -5 -7
-4 -11 1 -8 5 4 10 -9 10 -28 1 -19 -3 -34 -7 -34 -5 0 -9 -5 -9 -11 0 -5 4
-8 8 -5 5 3 8 -15 7 -40 -2 -35 2 -47 18 -55 14 -8 17 -8 13 0 -5 8 0 8 16 2
27 -10 58 -9 77 4 10 5 12 4 7 -3 -8 -13 20 -12 41 1 6 4 15 3 18 -3 4 -7 11
-7 18 -2 7 5 21 7 32 5 11 -2 25 -5 32 -5 9 -1 9 -7 2 -21 -6 -10 -8 -21 -6
-24 6 -5 32 38 29 49 -1 4 8 4 21 2 12 -3 27 -6 34 -6 8 -1 9 -7 2 -19 -12
-23 6 -35 26 -19 12 10 19 10 32 -1 11 -10 14 -10 9 -1 -4 6 -2 12 3 12 6 0
11 5 11 11 0 8 -5 8 -15 -1 -12 -10 -15 -10 -15 0 0 9 -7 7 -20 -5 -11 -10
-23 -16 -26 -13 -3 3 9 16 27 29 18 13 30 18 26 12 -8 -13 51 -12 72 1 10 6
12 5 7 -3 -7 -11 2 -11 49 -1 6 1 12 1 15 0 18 -8 80 -5 80 4 0 6 5 4 10 -4 5
-8 10 -11 10 -7 0 4 9 3 20 -3 11 -6 17 -16 14 -25 -4 -8 -2 -15 4 -15 5 0 8
14 7 31 -2 21 1 27 7 21 7 -7 19 -7 37 -1 14 6 22 7 19 3 -4 -4 -3 -14 2 -24
6 -11 4 -24 -6 -38 -9 -13 -11 -23 -4 -27 6 -4 9 -3 8 2 -1 4 3 18 10 29 6 12
9 31 7 44 -4 19 -2 20 12 8 9 -7 17 -13 17 -12 13 11 45 22 50 17 4 -4 17 -8
29 -9 12 -1 29 -3 37 -5 9 -3 14 2 12 11 -3 12 -1 12 9 3 8 -8 19 -9 35 -3 13
5 23 6 21 2 -1 -4 3 -7 8 -7 6 0 9 4 7 9 -2 5 3 5 10 -1 20 -17 21 -17 47 -4
14 8 21 9 17 2 -10 -16 16 -47 39 -46 11 0 26 -4 33 -9 9 -6 11 -5 7 6 -7 18
23 21 44 4 11 -8 13 -8 7 1 -4 7 -2 13 3 13 6 0 11 5 11 11 0 8 -5 8 -15 -1
-12 -10 -15 -10 -15 0 0 9 -4 9 -12 2 -21 -17 -24 -18 -42 -3 -14 12 -16 12
-10 -3 3 -9 1 -16 -5 -16 -14 0 -14 23 0 37 9 9 16 9 29 0 14 -8 23 -7 36 4
10 8 15 9 11 3 -8 -14 51 -13 72 0 10 6 12 5 7 -3 -5 -8 0 -10 18 -7 14 3 30
7 35 10 5 3 14 -1 20 -8 9 -11 9 -16 0 -22 -7 -4 -9 -3 -6 3 5 8 -22 11 -42 4
-11 -4 24 -31 38 -29 9 2 15 -2 14 -8 -1 -6 5 -11 13 -11 8 0 14 4 14 9 0 4
-4 8 -9 8 -6 0 -8 10 -6 22 5 26 25 49 25 29 0 -10 3 -11 14 -2 10 9 16 8 25
-3 10 -12 8 -17 -8 -26 -18 -9 -20 -8 -15 7 5 15 4 16 -5 3 -9 -12 -11 -13
-11 -1 0 8 -2 12 -5 9 -9 -9 7 -39 19 -35 6 3 20 -3 30 -12 11 -9 17 -11 13
-6 -3 6 3 16 14 23 19 12 26 5 12 -14 -5 -5 0 0 11 11 10 11 25 19 32 17 8 -2
14 1 14 6 0 10 -40 10 -57 -1 -17 -10 -28 12 -13 26 10 9 11 9 6 0 -9 -15 10
-18 19 -3 4 6 12 7 18 3 19 -12 77 -11 77 1 0 6 5 4 10 -4 5 -8 10 -11 10 -7
0 4 9 3 20 -3 11 -6 17 -16 14 -25 -4 -8 -2 -15 4 -15 5 0 8 14 7 31 -2 21 1
27 7 21 7 -7 19 -7 37 -1 14 6 22 7 19 3 -4 -4 -3 -14 2 -24 6 -11 4 -24 -6
-38 -9 -13 -11 -23 -4 -27 6 -4 9 -3 8 2 -1 4 3 18 10 29 6 12 9 31 7 44 -4
19 -2 20 12 8 9 -7 17 -13 17 -12 1 0 11 6 23 12 19 10 20 9 16 -9 -3 -11 -9
-17 -12 -12 -8 12 -32 10 -29 -2 1 -5 9 -9 16 -7 9 2 11 -1 7 -10 -6 -10 -5
-11 6 -1 17 17 37 17 21 1 -7 -7 -12 -17 -12 -23 0 -5 5 -2 11 8 6 9 14 15 19
12 10 -6 21 21 14 38 -3 8 3 13 16 13 11 0 20 -3 20 -6 0 -3 13 -5 29 -5 18 0
26 4 22 10 -9 13 -8 46 2 63 5 7 3 12 -5 12 -8 0 -9 3 -3 8 6 4 10 21 10 37
-1 41 5 56 19 48 6 -4 5 1 -3 10 -11 14 -11 21 3 44 l17 28 -20 -23 c-11 -13
-22 -18 -26 -12 -3 5 -2 10 4 10 13 0 11 41 -3 60 -10 13 -9 13 8 0 18 -14 19
-14 9 5 -12 23 -6 48 9 39 7 -4 8 -2 4 5 -6 9 -11 9 -22 0 -10 -8 -14 -8 -14
0 0 6 4 11 8 11 13 0 11 34 -2 42 -8 5 -7 8 2 8 10 0 10 5 1 21 -8 15 -8 19 0
15 6 -4 11 -3 11 3 0 5 -4 12 -10 16 -5 3 -6 13 -3 21 4 12 8 13 14 3 4 -7 5
-17 3 -21 -3 -4 -1 -8 5 -8 15 0 23 18 11 25 -17 10 6 32 32 30 24 -2 35 -19
19 -30 -14 -8 -14 -25 0 -25 5 0 7 4 4 10 -3 5 -2 10 4 10 14 0 23 -17 13 -24
-10 -6 -9 -42 0 -52 4 -3 5 6 4 20 -2 15 1 29 6 32 4 3 6 10 3 15 -11 16 7 10
21 -8 13 -17 14 -17 7 2 -6 18 -5 19 11 5 16 -13 20 -12 31 3 17 23 28 22 15
-2 -7 -14 -7 -22 2 -27 6 -4 8 -3 5 2 -3 6 -2 16 4 24 6 11 9 12 9 2 0 -8 5
-10 12 -6 8 5 9 1 5 -12 -7 -18 -6 -18 8 1 9 11 23 26 33 34 14 11 14 13 1 8
-9 -3 -16 0 -16 7 0 13 84 15 104 3 14 -9 20 1 17 31 0 12 3 22 8 22 6 0 7 -8
3 -17 -5 -14 -4 -15 6 -6 10 10 9 16 -2 29 -9 12 -14 48 -14 125 0 101 4 124
20 99 3 -5 10 -10 15 -10 6 0 2 9 -7 19 -9 11 -19 18 -23 16 -3 -2 -6 16 -5
41 0 24 3 44 6 44 14 0 18 -14 8 -31 -5 -11 -6 -19 -2 -19 9 0 33 48 33 67 0
7 -4 13 -9 13 -5 0 -7 -10 -3 -22 3 -14 2 -19 -7 -14 -6 4 -8 12 -5 18 5 8 1
9 -12 5 -17 -6 -18 -6 -2 6 11 9 14 18 7 28 -5 8 -9 19 -8 24 0 6 6 -1 13 -14
11 -19 14 -21 19 -7 4 9 2 16 -3 16 -6 0 -10 6 -10 14 0 8 -6 16 -12 19 -7 3
-3 4 8 4 12 -1 20 -6 18 -12 -2 -5 9 -10 26 -10 27 -1 35 6 31 28 -1 5 4 5 11
1 19 -12 92 -12 101 0 6 7 7 4 3 -7 -3 -9 -1 -17 4 -17 6 0 10 5 10 11 0 6 9
8 20 4 13 -4 20 -2 20 7 0 8 3 9 8 3 10 -14 117 -12 134 3 8 6 17 9 20 6 3 -2
8 3 12 12 6 15 4 15 -18 1 -23 -16 -24 -15 -22 14 0 16 4 29 9 29 4 0 5 6 0
13 -12 18 -11 67 2 65 6 -2 10 2 10 7 0 6 -3 9 -7 8 -5 -2 -8 0 -9 5 -6 44 -4
62 5 60 7 -2 11 2 11 7 0 6 -3 9 -7 8 -5 -2 -8 0 -9 5 -6 43 -4 62 5 60 6 -2
11 2 11 7 0 6 -3 9 -7 8 -5 -2 -8 3 -9 10 0 6 -2 20 -4 30 -2 9 1 15 6 11 5
-3 9 0 9 5 0 6 -5 11 -12 11 -6 0 -3 7 8 16 10 8 14 13 7 10 -6 -4 -14 -2 -18
4 -3 5 3 10 14 10 12 0 21 4 21 10 0 5 -7 7 -15 4 -11 -5 -15 1 -16 22 0 16
-2 37 -4 47 -3 14 1 16 18 11 21 -6 20 -5 -3 15 -17 15 -21 24 -12 27 6 3 10
9 7 14 -3 4 -7 26 -9 49 -3 35 -1 41 15 41 10 0 19 4 19 10 0 5 -7 7 -15 4
-11 -5 -15 1 -16 22 0 16 -2 37 -4 47 -3 14 1 16 18 11 21 -6 20 -5 -3 15 -17
15 -21 24 -12 27 6 3 9 10 6 16 -4 5 -7 55 -8 109 -1 71 2 98 11 96 6 -1 12 3
11 8 0 6 -4 9 -9 7 -10 -2 -10 -2 -13 41 -2 18 2 26 10 25 7 -2 13 2 12 7 0 6
-4 9 -9 7 -10 -2 -10 -2 -13 41 -2 18 2 26 10 25 7 -2 13 2 12 7 0 6 -4 9 -9
7 -10 -2 -10 -2 -13 41 -2 18 2 26 10 25 7 -2 13 2 12 7 0 6 -4 9 -9 7 -10 -2
-10 -2 -13 41 -2 18 2 26 10 25 7 -2 13 2 12 7 0 6 -4 9 -9 7 -10 -2 -10 -2
-13 41 -2 18 2 26 10 25 7 -2 13 2 12 7 0 6 -4 9 -9 7 -5 -1 -9 1 -10 5 -6 44
-4 63 5 61 6 -2 12 2 12 7 1 6 -2 9 -7 7 -5 -1 -9 1 -10 5 -6 45 -4 63 5 61 7
-2 12 2 13 7 0 6 -3 9 -8 7 -10 -2 -10 2 -13 66 -1 34 2 42 16 42 10 0 18 4
18 10 0 5 -7 7 -15 4 -11 -5 -15 1 -16 22 0 16 -2 37 -4 47 -3 14 1 16 18 11
21 -6 20 -5 -3 15 -17 15 -21 24 -12 27 6 3 9 10 6 16 -4 6 -7 50 -8 99 -1 84
0 88 19 83 17 -6 16 -3 -5 15 -17 15 -21 24 -12 27 6 3 10 9 7 14 -3 4 -7 26
-9 49 -3 35 -1 41 15 41 10 0 19 4 19 10 0 5 -7 7 -15 4 -11 -5 -15 1 -16 22
-1 16 -2 41 -3 57 -2 16 2 26 8 25 7 -2 11 2 11 7 0 6 -3 9 -7 8 -5 -2 -8 0
-9 5 -6 43 -4 62 5 60 6 -2 11 2 11 7 0 6 -3 9 -7 8 -5 -2 -8 0 -9 5 -6 43 -4
62 5 60 6 -2 11 2 11 7 0 6 -3 9 -7 8 -9 -3 -9 -3 -12 40 -2 18 2 26 10 25 7
-2 12 1 11 7 -1 5 -5 9 -9 8 -9 -3 -9 -3 -12 40 -2 18 2 26 10 25 7 -2 12 2
11 7 -1 6 -5 9 -9 8 -9 -3 -9 -3 -12 40 -2 18 2 26 10 25 7 -2 12 2 11 7 -1 6
-5 9 -9 8 -9 -3 -9 -3 -12 40 -2 18 2 26 10 25 7 -2 13 2 12 7 0 6 -4 9 -9 8
-5 -2 -9 0 -10 5 -6 43 -4 62 5 60 6 -2 12 2 13 7 0 6 -3 9 -8 8 -5 -2 -9 3
-10 10 0 6 -2 20 -4 30 -2 9 1 15 6 11 5 -3 9 0 9 5 0 6 -5 11 -12 11 -6 0 -3
7 8 16 10 8 14 13 7 10 -6 -4 -14 -2 -18 4 -3 5 3 10 14 10 12 0 21 4 21 10 0
5 -7 7 -15 4 -11 -5 -15 1 -16 22 0 16 -2 37 -4 47 -3 14 1 16 18 11 21 -6 20
-5 -3 15 -17 15 -21 24 -12 27 6 3 10 9 7 14 -3 4 -7 26 -9 49 -3 35 -1 41 15
41 10 0 19 4 19 10 0 5 -7 7 -15 4 -11 -5 -15 1 -16 22 0 16 -2 37 -4 47 -3
14 1 16 18 11 21 -6 20 -5 -3 15 -17 15 -21 24 -12 27 6 3 9 11 5 17 -4 6 -8
43 -8 82 -1 39 -4 76 -8 81 -3 6 -32 10 -64 9 -32 -1 -66 2 -77 8 -13 6 -16 6
-12 -2 4 -6 4 -11 1 -11 -4 0 -16 5 -27 11 -15 8 -19 8 -14 0 4 -6 2 -11 -3
-11 -6 0 -11 5 -11 11 0 5 -5 7 -12 3 -17 -11 -389 -11 -395 0 -3 4 -9 2 -13
-5 -7 -10 -11 -10 -24 0 -9 8 -16 9 -16 3 0 -11 -49 -11 -67 1 -6 4 -15 2 -19
-5z m-10 -1034 c1 -52 0 -55 -21 -51 -32 6 -50 -8 -34 -26 14 -17 1 -30 -18
-18 -10 6 -10 13 -2 28 5 11 7 24 3 28 -4 3 -7 19 -7 33 0 20 9 32 35 48 19
11 37 19 39 17 2 -2 5 -28 5 -59z m-49 -360 c-11 -9 -19 -20 -17 -25 1 -5 -2
-9 -8 -9 -16 0 -5 45 11 45 8 1 13 7 11 15 -3 12 -1 13 10 2 11 -11 10 -16 -7
-28z m-767 -79 c-3 -3 -9 2 -12 12 -6 14 -5 15 5 6 7 -7 10 -15 7 -18z m38 16
c11 9 14 8 14 -2 0 -11 2 -11 10 1 7 11 10 11 10 2 0 -7 5 -10 10 -7 17 11 11
-1 -11 -21 -15 -14 -20 -15 -17 -4 2 10 -4 14 -19 13 -16 -2 -23 2 -22 15 0
11 2 12 6 4 4 -10 8 -10 19 -1z m94 -2 c0 -4 -6 -9 -13 -12 -8 -3 -14 0 -14 7
0 7 6 13 14 13 7 0 13 -4 13 -8z m345 -15 c9 -1 19 4 22 12 4 11 8 11 21 -2
12 -13 13 -17 2 -24 -30 -19 -80 3 -80 35 0 6 4 4 9 -4 5 -8 17 -16 26 -17z
m15 18 c0 -5 -7 -9 -15 -9 -8 0 -12 4 -9 9 3 4 9 8 15 8 5 0 9 -4 9 -8z m130
-2 c0 13 2 13 9 0 6 -8 7 -18 4 -23 -6 -10 -33 11 -33 27 0 6 5 4 10 -4 9 -13
10 -13 10 0z m-975 -369 c3 -5 2 -12 -3 -15 -5 -3 -9 1 -9 9 0 17 3 19 12 6z
m-181 -144 c-3 -8 2 -14 11 -14 10 0 14 6 10 16 -3 11 0 10 10 -3 8 -11 15
-14 15 -8 0 7 5 12 11 12 8 0 8 -5 -1 -15 -7 -8 -16 -13 -20 -10 -4 3 -13 -2
-20 -10 -18 -22 -26 -18 -24 13 2 30 2 32 9 32 2 0 2 -6 -1 -13z m-207 -19
c-3 -8 -6 -5 -6 6 -1 11 2 17 5 13 3 -3 4 -12 1 -19z m103 -3 c0 -2 -10 -9
-22 -15 -22 -11 -22 -10 -4 4 21 17 26 19 26 11z m50 -5 c0 -5 -2 -10 -4 -10
-3 0 -8 5 -11 10 -3 6 -1 10 4 10 6 0 11 -4 11 -10z m-127 -25 c4 -8 2 -17 -3
-20 -6 -4 -10 -4 -10 -1 0 2 -3 11 -6 20 -3 9 -2 16 4 16 5 0 12 -7 15 -15z
m-33 -549 c0 -3 -4 -8 -10 -11 -5 -3 -10 -1 -10 4 0 6 5 11 10 11 6 0 10 -2
10 -4z m5 -466 c-3 -5 -11 -10 -16 -10 -6 0 -7 5 -4 10 3 6 11 10 16 10 6 0 7
-4 4 -10z m2 -367 c-1 -14 -9 -29 -17 -31 -13 -5 -13 -3 -1 11 11 14 11 17 0
18 -12 0 -12 1 0 6 11 5 11 7 0 14 -11 7 -10 9 3 9 12 0 16 -7 15 -27z m1560
-78 c0 -8 -4 -12 -9 -9 -4 3 -8 9 -8 15 0 5 4 9 8 9 5 0 9 -7 9 -15z m-1562
-5 c-3 -5 -11 -10 -16 -10 -6 0 -7 5 -4 10 3 6 11 10 16 10 6 0 7 -4 4 -10z
m-614 -60 c6 0 8 4 5 9 -3 5 12 8 34 8 22 -1 40 -5 40 -11 0 -5 -3 -6 -7 -3
-3 4 -12 2 -19 -4 -8 -7 -14 -7 -19 1 -5 8 -11 8 -20 0 -16 -13 -35 -5 -34 13
0 9 2 9 6 0 2 -7 9 -13 14 -13z m379 10 c0 -5 -2 -10 -4 -10 -3 0 -8 5 -11 10
-3 6 -1 10 4 10 6 0 11 -4 11 -10z m2245 -28 c-3 -3 -11 0 -18 7 -9 10 -8 11
6 5 10 -3 15 -9 12 -12z m-344 -502 c6 0 8 4 5 8 -6 11 34 9 51 -1 6 -4 14 -1
17 5 5 10 7 10 12 -1 5 -11 8 -11 15 0 7 11 9 11 9 1 0 -7 5 -10 12 -6 7 4 8
3 4 -4 -4 -7 -2 -12 4 -12 6 0 8 -5 5 -10 -4 -7 -14 -6 -28 2 -31 18 -59 18
-53 2 6 -15 -10 -19 -18 -5 -4 5 -16 8 -29 7 -17 -2 -23 2 -24 18 -1 12 1 15
4 9 3 -7 9 -13 14 -13z m-111 -304 c0 -3 -4 -8 -10 -11 -5 -3 -10 -1 -10 4 0
6 5 11 10 11 6 0 10 -2 10 -4z m-829 -203 c-8 -15 -10 -15 -11 -2 0 17 10 32
18 25 2 -3 -1 -13 -7 -23z m726 -9 c-9 -9 -28 6 -21 18 4 6 10 6 17 -1 6 -6 8
-13 4 -17z m-492 -4 c3 -5 2 -10 -4 -10 -5 0 -13 5 -16 10 -3 6 -2 10 4 10 5
0 13 -4 16 -10z m114 -11 c-16 -10 -23 -4 -14 10 3 6 11 8 17 5 6 -4 5 -9 -3
-15z"/>
<path d="M3300 3811 c-8 -6 -18 -7 -24 -4 -5 3 -6 1 -3 -4 4 -6 19 -10 34 -10
16 0 22 2 15 4 -6 3 -10 9 -6 14 7 11 3 11 -16 0z"/>
<path d="M3263 3770 c-2 -25 15 -36 23 -16 3 9 10 16 16 16 5 0 7 -4 3 -9 -3
-5 -1 -12 4 -15 5 -4 8 2 7 11 -2 10 -9 18 -17 18 -8 0 -19 3 -24 7 -6 4 -11
-2 -12 -12z"/>
<path d="M3015 3340 c-3 -5 -1 -10 4 -10 6 0 11 5 11 10 0 6 -2 10 -4 10 -3 0
-8 -4 -11 -10z"/>
<path d="M3455 749 c-3 -4 2 -6 10 -5 21 3 28 13 10 13 -9 0 -18 -4 -20 -8z"/>
<path d="M4114 4759 c-3 -6 -2 -15 3 -20 5 -5 9 -1 9 11 0 23 -2 24 -12 9z"/>
<path d="M4115 4660 c-3 -5 -1 -10 4 -10 6 0 11 5 11 10 0 6 -2 10 -4 10 -3 0
-8 -4 -11 -10z"/>
<path d="M4135 4640 c-3 -6 1 -7 9 -4 18 7 21 14 7 14 -6 0 -13 -4 -16 -10z"/>
<path d="M4118 4613 c7 -3 16 -2 19 1 4 3 -2 6 -13 5 -11 0 -14 -3 -6 -6z"/>
<path d="M4135 4560 c3 -5 8 -10 11 -10 2 0 4 5 4 10 0 6 -5 10 -11 10 -5 0
-7 -4 -4 -10z"/>
<path d="M4120 4541 c0 -6 4 -13 10 -16 6 -3 7 1 4 9 -7 18 -14 21 -14 7z"/>
<path d="M3285 4500 c-3 -6 1 -7 9 -4 18 7 21 14 7 14 -6 0 -13 -4 -16 -10z"/>
<path d="M4156 4482 c-3 -5 1 -9 9 -9 8 0 12 4 9 9 -3 4 -7 8 -9 8 -2 0 -6 -4
-9 -8z"/>
<path d="M3313 4455 c0 -8 4 -12 9 -9 5 3 6 10 3 15 -9 13 -12 11 -12 -6z"/>
<path d="M4118 4463 c7 -3 16 -2 19 1 4 3 -2 6 -13 5 -11 0 -14 -3 -6 -6z"/>
<path d="M4135 4440 c3 -5 8 -10 11 -10 2 0 4 5 4 10 0 6 -5 10 -11 10 -5 0
-7 -4 -4 -10z"/>
<path d="M4144 4404 c-18 -14 -18 -15 4 -4 12 6 22 13 22 15 0 8 -5 6 -26 -11z"/>
<path d="M4118 4373 c7 -3 16 -2 19 1 4 3 -2 6 -13 5 -11 0 -14 -3 -6 -6z"/>
<path d="M4135 4320 c3 -5 8 -10 11 -10 2 0 4 5 4 10 0 6 -5 10 -11 10 -5 0
-7 -4 -4 -10z"/>
<path d="M4120 4301 c0 -6 4 -13 10 -16 6 -3 7 1 4 9 -7 18 -14 21 -14 7z"/>
<path d="M3285 4260 c-3 -6 1 -7 9 -4 18 7 21 14 7 14 -6 0 -13 -4 -16 -10z"/>
<path d="M3313 4215 c0 -8 4 -12 9 -9 5 3 6 10 3 15 -9 13 -12 11 -12 -6z"/>
<path d="M4135 4220 c-4 -6 -1 -9 7 -8 7 2 12 -3 10 -10 -1 -8 2 -11 8 -7 8 5
7 11 -1 21 -14 17 -16 17 -24 4z"/>
<path d="M4130 4191 c0 -6 4 -13 10 -16 6 -3 7 1 4 9 -7 18 -14 21 -14 7z"/>
<path d="M4153 4071 c0 -11 5 -18 9 -15 4 3 5 11 1 19 -7 21 -12 19 -10 -4z"/>
<path d="M3296 3998 c3 -5 10 -6 15 -3 13 9 11 12 -6 12 -8 0 -12 -4 -9 -9z"/>
<path d="M4153 3911 c0 -11 5 -18 9 -15 4 3 5 11 1 19 -7 21 -12 19 -10 -4z"/>
<path d="M3270 3873 c6 -13 15 -23 20 -23 15 0 21 18 9 26 -8 4 -9 3 -5 -4 11
-19 -5 -14 -21 6 -13 15 -13 15 -3 -5z"/>
<path d="M1736 3827 c3 -10 9 -15 12 -12 3 3 0 11 -7 18 -10 9 -11 8 -5 -6z"/>
<path d="M1736 3773 c-6 -14 -5 -15 5 -6 7 7 10 15 7 18 -3 3 -9 -2 -12 -12z"/>
<path d="M4153 3751 c0 -11 5 -18 9 -15 4 3 5 11 1 19 -7 21 -12 19 -10 -4z"/>
<path d="M4153 3591 c0 -11 5 -18 9 -15 4 3 5 11 1 19 -7 21 -12 19 -10 -4z"/>
<path d="M4120 3501 c0 -6 4 -13 10 -16 6 -3 7 1 4 9 -7 18 -14 21 -14 7z"/>
<path d="M4118 3423 c7 -3 16 -2 19 1 4 3 -2 6 -13 5 -11 0 -14 -3 -6 -6z"/>
<path d="M4135 3400 c3 -5 8 -10 11 -10 2 0 4 5 4 10 0 6 -5 10 -11 10 -5 0
-7 -4 -4 -10z"/>
<path d="M3265 3364 c-10 -8 -14 -14 -9 -14 6 0 15 5 22 12 9 9 12 9 12 0 0
-7 5 -12 10 -12 14 0 12 17 -3 23 -7 3 -21 -1 -32 -9z"/>
<path d="M4144 3364 c-18 -14 -18 -15 4 -4 12 6 22 13 22 15 0 8 -5 6 -26 -11z"/>
<path d="M2273 3345 c0 -8 10 -23 21 -32 16 -14 18 -15 8 -2 -11 14 -9 17 13
17 13 0 22 -4 19 -9 -3 -5 0 -9 5 -9 14 0 14 6 0 31 -8 16 -13 18 -25 8 -10
-8 -18 -9 -27 0 -10 8 -14 7 -14 -4z"/>
<path d="M2876 3352 c-4 -7 -12 -10 -17 -7 -5 4 -9 1 -9 -4 0 -6 -5 -11 -11
-11 -5 0 -7 5 -3 12 5 7 3 8 -6 3 -10 -6 -9 -11 6 -22 16 -12 20 -11 31 4 12
16 14 16 27 -3 8 -10 18 -16 22 -11 4 4 2 7 -5 7 -7 0 -10 4 -6 10 3 5 12 7
20 4 8 -4 13 -9 10 -13 -2 -4 2 -8 9 -8 11 0 12 4 3 18 -6 10 -13 16 -16 14
-2 -3 -11 1 -19 8 -13 9 -14 9 -8 0 4 -7 3 -13 -3 -13 -5 0 -11 5 -13 12 -3 9
-6 9 -12 0z"/>
<path d="M3187 3334 c19 -29 28 -32 13 -4 -6 12 -7 20 -1 20 5 0 12 -5 14 -10
3 -6 4 -5 3 2 -1 7 -12 13 -24 14 -19 1 -20 0 -5 -22z"/>
<path d="M2400 3335 c-7 -9 -11 -17 -9 -20 3 -2 10 5 17 15 14 24 10 26 -8 5z"/>
<path d="M2421 3329 c-7 -12 -10 -24 -7 -27 3 -3 6 0 6 7 0 7 4 10 9 7 9 -6
61 15 61 25 0 3 -7 6 -15 6 -8 0 -15 -5 -15 -10 0 -5 -6 -5 -13 1 -10 8 -16 6
-26 -9z"/>
<path d="M3075 3339 c-4 -6 -5 -12 -2 -15 2 -3 7 2 10 11 7 17 1 20 -8 4z"/>
<path d="M2221 3323 c-6 -10 -11 -13 -11 -6 0 20 -35 7 -35 -13 0 -10 -4 -24
-8 -31 -5 -7 1 -16 13 -23 20 -11 21 -10 11 9 -7 13 -8 22 -1 26 5 3 10 -1 10
-9 0 -8 4 -18 10 -21 11 -7 2 23 -13 43 -14 18 3 15 27 -5 20 -17 20 -17 7 0
-15 19 -1 23 18 5 10 -11 11 -9 5 6 -6 15 -4 17 7 11 12 -8 12 -6 0 8 -17 22
-27 21 -40 0z"/>
<path d="M3226 3324 c-5 -14 -4 -15 9 -4 17 14 19 20 6 20 -5 0 -12 -7 -15
-16z"/>
<path d="M3270 3331 c0 -6 4 -12 8 -15 5 -3 9 1 9 9 0 8 -4 15 -9 15 -4 0 -8
-4 -8 -9z"/>
<path d="M4118 3333 c7 -3 16 -2 19 1 4 3 -2 6 -13 5 -11 0 -14 -3 -6 -6z"/>
<path d="M2468 3303 c6 -2 9 -10 6 -15 -4 -7 -2 -8 5 -4 13 9 5 26 -12 25 -9
0 -8 -2 1 -6z"/>
<path d="M2875 3300 c3 -5 8 -10 11 -10 2 0 4 5 4 10 0 6 -5 10 -11 10 -5 0
-7 -4 -4 -10z"/>
<path d="M3286 3285 c-11 -8 -15 -15 -9 -15 6 0 16 7 23 15 16 19 11 19 -14 0z"/>
<path d="M4135 3280 c3 -5 8 -10 11 -10 2 0 4 5 4 10 0 6 -5 10 -11 10 -5 0
-7 -4 -4 -10z"/>
<path d="M4120 3261 c0 -6 4 -13 10 -16 6 -3 7 1 4 9 -7 18 -14 21 -14 7z"/>
<path d="M970 3246 c0 -2 7 -7 16 -10 8 -3 12 -2 9 4 -6 10 -25 14 -25 6z"/>
<path d="M2200 3226 c0 -2 7 -7 16 -10 8 -3 12 -2 9 4 -6 10 -25 14 -25 6z"/>
<path d="M4120 3215 c-11 -13 -10 -14 4 -9 9 3 16 10 16 15 0 13 -6 11 -20 -6z"/>
<path d="M2184 3191 c0 -11 4 -17 8 -15 4 3 8 12 8 20 0 8 -4 14 -8 14 -4 0
-8 -9 -8 -19z"/>
<path d="M4118 3183 c7 -3 16 -2 19 1 4 3 -2 6 -13 5 -11 0 -14 -3 -6 -6z"/>
<path d="M2196 3155 c-11 -8 -15 -15 -9 -15 6 0 16 7 23 15 16 19 11 19 -14 0z"/>
<path d="M4135 3160 c3 -5 8 -10 11 -10 2 0 4 5 4 10 0 6 -5 10 -11 10 -5 0
-7 -4 -4 -10z"/>
<path d="M4144 3124 c-18 -14 -18 -15 4 -4 12 6 22 13 22 15 0 8 -5 6 -26 -11z"/>
<path d="M2163 3087 c0 -7 9 -13 19 -13 10 0 18 1 18 3 0 1 -8 7 -18 12 -13 7
-19 6 -19 -2z"/>
<path d="M4118 3093 c7 -3 16 -2 19 1 4 3 -2 6 -13 5 -11 0 -14 -3 -6 -6z"/>
<path d="M3285 3060 c-3 -6 1 -7 9 -4 18 7 21 14 7 14 -6 0 -13 -4 -16 -10z"/>
<path d="M4135 3040 c3 -5 8 -10 11 -10 2 0 4 5 4 10 0 6 -5 10 -11 10 -5 0
-7 -4 -4 -10z"/>
<path d="M2186 3023 c-6 -14 -5 -15 5 -6 7 7 10 15 7 18 -3 3 -9 -2 -12 -12z"/>
<path d="M4120 3021 c0 -6 4 -13 10 -16 6 -3 7 1 4 9 -7 18 -14 21 -14 7z"/>
<path d="M2196 2987 c3 -10 9 -15 12 -12 3 3 0 11 -7 18 -10 9 -11 8 -5 -6z"/>
<path d="M2166 2917 c3 -12 6 -27 8 -34 1 -7 5 -15 9 -19 7 -8 1 31 -7 45 -4
5 -1 11 6 13 8 3 6 7 -4 11 -13 4 -16 1 -12 -16z"/>
<path d="M4113 2925 c0 -8 3 -13 5 -10 3 3 11 -3 19 -13 11 -15 12 -13 2 11
-13 30 -26 36 -26 12z"/>
<path d="M3285 2900 c-3 -6 1 -7 9 -4 18 7 21 14 7 14 -6 0 -13 -4 -16 -10z"/>
<path d="M2121 2804 c0 -11 3 -14 6 -6 3 7 2 16 -1 19 -3 4 -6 -2 -5 -13z"/>
<path d="M4153 2791 c0 -11 5 -18 9 -15 4 3 5 11 1 19 -7 21 -12 19 -10 -4z"/>
<path d="M2090 2791 c0 -6 4 -13 10 -16 6 -3 7 1 4 9 -7 18 -14 21 -14 7z"/>
<path d="M1856 2781 c-3 -4 6 -6 19 -3 14 2 25 6 25 8 0 8 -39 4 -44 -5z"/>
<path d="M976 2767 c3 -10 9 -15 12 -12 3 3 0 11 -7 18 -10 9 -11 8 -5 -6z"/>
<path d="M1776 2733 c-6 -14 -5 -15 5 -6 7 7 10 15 7 18 -3 3 -9 -2 -12 -12z"/>
<path d="M3285 2740 c-3 -6 1 -7 9 -4 18 7 21 14 7 14 -6 0 -13 -4 -16 -10z"/>
<path d="M1765 2700 c-3 -5 -2 -10 4 -10 5 0 13 5 16 10 3 6 2 10 -4 10 -5 0
-13 -4 -16 -10z"/>
<path d="M1796 2679 c2 -4 -2 -10 -8 -12 -8 -4 -9 -6 -2 -6 6 -1 17 5 23 12 8
10 7 14 -4 14 -8 0 -12 -4 -9 -8z"/>
<path d="M4153 2631 c0 -11 5 -18 9 -15 4 3 5 11 1 19 -7 21 -12 19 -10 -4z"/>
<path d="M1810 2601 c0 -6 4 -13 10 -16 6 -3 7 1 4 9 -7 18 -14 21 -14 7z"/>
<path d="M1765 2580 c-3 -5 -2 -10 4 -10 5 0 13 5 16 10 3 6 2 10 -4 10 -5 0
-13 -4 -16 -10z"/>
<path d="M3285 2580 c-3 -6 1 -7 9 -4 18 7 21 14 7 14 -6 0 -13 -4 -16 -10z"/>
<path d="M1790 2558 c0 -4 4 -8 9 -8 6 0 12 4 15 8 3 5 -1 9 -9 9 -8 0 -15 -4
-15 -9z"/>
<path d="M976 2527 c3 -10 9 -15 12 -12 3 3 0 11 -7 18 -10 9 -11 8 -5 -6z"/>
<path d="M4153 2471 c0 -11 5 -18 9 -15 4 3 5 11 1 19 -7 21 -12 19 -10 -4z"/>
<path d="M3285 2420 c-3 -6 1 -7 9 -4 18 7 21 14 7 14 -6 0 -13 -4 -16 -10z"/>
<path d="M1790 2409 c0 -5 -6 -7 -12 -3 -7 4 -9 3 -5 -1 13 -15 36 -14 30 1
-6 17 -13 18 -13 3z"/>
<path d="M1796 2362 c-3 -5 1 -9 9 -9 8 0 12 4 9 9 -3 4 -7 8 -9 8 -2 0 -6 -4
-9 -8z"/>
<path d="M4153 2311 c0 -11 5 -18 9 -15 4 3 5 11 1 19 -7 21 -12 19 -10 -4z"/>
<path d="M976 2287 c3 -10 9 -15 12 -12 3 3 0 11 -7 18 -10 9 -11 8 -5 -6z"/>
<path d="M1810 2265 c0 -5 5 -17 10 -25 5 -8 10 -10 10 -5 0 6 -5 17 -10 25
-5 8 -10 11 -10 5z"/>
<path d="M3285 2260 c-3 -6 1 -7 9 -4 18 7 21 14 7 14 -6 0 -13 -4 -16 -10z"/>
<path d="M1786 2223 c-6 -14 -5 -15 5 -6 7 7 10 15 7 18 -3 3 -9 -2 -12 -12z"/>
<path d="M4120 2221 c0 -6 4 -13 10 -16 6 -3 7 1 4 9 -7 18 -14 21 -14 7z"/>
<path d="M1790 2190 c-9 -6 -10 -10 -3 -10 6 0 15 5 18 10 8 12 4 12 -15 0z"/>
<path d="M4120 2175 c-11 -13 -10 -14 4 -9 9 3 16 10 16 15 0 13 -6 11 -20 -6z"/>
<path d="M1769 2161 c6 -10 9 -20 8 -22 -1 -2 0 -3 2 -1 11 7 8 31 -5 36 -11
4 -12 1 -5 -13z"/>
<path d="M4118 2143 c7 -3 16 -2 19 1 4 3 -2 6 -13 5 -11 0 -14 -3 -6 -6z"/>
<path d="M1810 2121 c0 -6 4 -13 10 -16 6 -3 7 1 4 9 -7 18 -14 21 -14 7z"/>
<path d="M4135 2120 c3 -5 8 -10 11 -10 2 0 4 5 4 10 0 6 -5 10 -11 10 -5 0
-7 -4 -4 -10z"/>
<path d="M3285 2100 c-3 -6 1 -7 9 -4 18 7 21 14 7 14 -6 0 -13 -4 -16 -10z"/>
<path d="M4144 2084 c-18 -14 -18 -15 4 -4 12 6 22 13 22 15 0 8 -5 6 -26 -11z"/>
<path d="M1764 2061 c0 -11 3 -18 7 -15 4 2 10 -2 12 -8 3 -7 6 -8 6 -2 1 5
-5 18 -12 28 -12 16 -13 16 -13 -3z"/>
<path d="M4118 2053 c7 -3 16 -2 19 1 4 3 -2 6 -13 5 -11 0 -14 -3 -6 -6z"/>
<path d="M4135 2000 c3 -5 8 -10 11 -10 2 0 4 5 4 10 0 6 -5 10 -11 10 -5 0
-7 -4 -4 -10z"/>
<path d="M4120 1981 c0 -6 4 -13 10 -16 6 -3 7 1 4 9 -7 18 -14 21 -14 7z"/>
<path d="M3285 1940 c-3 -6 1 -7 9 -4 18 7 21 14 7 14 -6 0 -13 -4 -16 -10z"/>
<path d="M1791 1924 c0 -11 3 -14 6 -6 3 7 2 16 -1 19 -3 4 -6 -2 -5 -13z"/>
<path d="M1766 1902 c-3 -5 1 -15 8 -21 11 -10 14 -9 12 3 -3 21 -13 29 -20
18z"/>
<path d="M3313 1895 c0 -8 4 -12 9 -9 5 3 6 10 3 15 -9 13 -12 11 -12 -6z"/>
<path d="M4118 1903 c7 -3 16 -2 19 1 4 3 -2 6 -13 5 -11 0 -14 -3 -6 -6z"/>
<path d="M4135 1880 c3 -5 8 -10 11 -10 2 0 4 5 4 10 0 6 -5 10 -11 10 -5 0
-7 -4 -4 -10z"/>
<path d="M1790 1860 c-9 -6 -10 -10 -3 -10 6 0 15 5 18 10 8 12 4 12 -15 0z"/>
<path d="M4144 1844 c-18 -14 -18 -15 4 -4 12 6 22 13 22 15 0 8 -5 6 -26 -11z"/>
<path d="M976 1807 c3 -10 9 -15 12 -12 3 3 0 11 -7 18 -10 9 -11 8 -5 -6z"/>
<path d="M4118 1813 c7 -3 16 -2 19 1 4 3 -2 6 -13 5 -11 0 -14 -3 -6 -6z"/>
<path d="M4135 1760 c3 -5 8 -10 11 -10 2 0 4 5 4 10 0 6 -5 10 -11 10 -5 0
-7 -4 -4 -10z"/>
<path d="M4120 1741 c0 -6 4 -13 10 -16 6 -3 7 1 4 9 -7 18 -14 21 -14 7z"/>
<path d="M1815 1709 c-4 -6 -5 -12 -2 -15 2 -3 7 2 10 11 7 17 1 20 -8 4z"/>
<path d="M3285 1700 c-3 -6 1 -7 9 -4 18 7 21 14 7 14 -6 0 -13 -4 -16 -10z"/>
<path d="M1795 1659 c-4 -6 -5 -12 -2 -15 2 -3 7 2 10 11 7 17 1 20 -8 4z"/>
<path d="M3313 1655 c0 -8 4 -12 9 -9 5 3 6 10 3 15 -9 13 -12 11 -12 -6z"/>
<path d="M4135 1660 c-4 -6 -1 -9 7 -8 7 2 12 -3 10 -10 -1 -8 2 -11 8 -7 8 5
7 11 -1 21 -14 17 -16 17 -24 4z"/>
<path d="M4130 1631 c0 -6 4 -13 10 -16 6 -3 7 1 4 9 -7 18 -14 21 -14 7z"/>
<path d="M1790 1619 c0 -5 5 -7 10 -4 6 3 10 8 10 11 0 2 -4 4 -10 4 -5 0 -10
-5 -10 -11z"/>
<path d="M1766 1582 c-3 -5 1 -15 8 -21 11 -10 14 -9 12 3 -3 21 -13 29 -20
18z"/>
<path d="M976 1567 c3 -10 9 -15 12 -12 3 3 0 11 -7 18 -10 9 -11 8 -5 -6z"/>
<path d="M1790 1540 c-9 -6 -10 -10 -3 -10 6 0 15 5 18 10 8 12 4 12 -15 0z"/>
<path d="M4153 1511 c0 -11 5 -18 9 -15 4 3 5 11 1 19 -7 21 -12 19 -10 -4z"/>
<path d="M4150 1438 c0 -4 4 -8 9 -8 6 0 12 4 15 8 3 5 -1 9 -9 9 -8 0 -15 -4
-15 -9z"/>
<path d="M4150 1366 c0 -2 7 -7 16 -10 8 -3 12 -2 9 4 -6 10 -25 14 -25 6z"/>
<path d="M4115 1310 c-3 -6 1 -7 9 -4 18 7 21 14 7 14 -6 0 -13 -4 -16 -10z"/>
<path d="M1254 1269 c-2 -4 -1 -15 3 -25 6 -16 7 -16 14 2 6 18 8 17 18 -6 11
-25 11 -24 6 4 -6 26 -4 28 9 17 9 -7 14 -16 12 -20 -3 -4 5 -8 16 -8 19 -2
19 -1 3 11 -13 9 -15 15 -7 20 7 4 12 3 12 -2 0 -5 10 -12 23 -15 22 -5 22 -5
-2 11 -24 16 -99 24 -107 11z"/>
<path d="M1485 1270 c-4 -6 -10 -8 -15 -5 -4 3 -10 -2 -13 -10 -4 -10 -1 -12
10 -8 10 4 14 2 10 -4 -3 -5 0 -10 8 -10 8 0 13 3 10 5 -3 3 0 11 6 18 6 8 6
14 0 18 -5 4 -12 2 -16 -4z"/>
<path d="M4109 1243 c-13 -16 -12 -17 4 -4 16 13 21 21 13 21 -2 0 -10 -8 -17
-17z"/>
<path d="M1110 1241 c0 -6 5 -13 12 -17 6 -4 8 -3 4 4 -3 5 0 13 6 15 8 3 6 6
-4 6 -10 1 -18 -3 -18 -8z"/>
<path d="M1710 1241 c0 -6 4 -13 10 -16 6 -3 7 1 4 9 -7 18 -14 21 -14 7z"/>
<path d="M3806 1233 c-4 -8 -11 -11 -18 -7 -10 6 -9 3 0 -9 12 -14 11 -16 -6
-14 -12 0 -18 6 -15 14 3 7 1 13 -4 13 -5 0 -9 -9 -10 -21 -1 -13 3 -19 11
-16 8 3 24 -2 37 -11 22 -15 23 -15 10 1 -11 14 -11 18 3 23 10 4 15 13 11 22
-4 12 -2 12 8 4 8 -7 18 -8 22 -4 5 4 5 -2 2 -13 -6 -17 -5 -18 5 -4 13 16 48
22 48 8 0 -4 7 -9 14 -12 11 -4 13 -1 9 10 -5 12 -3 14 8 7 21 -13 47 -15 54
-4 4 6 12 7 18 3 18 -11 47 -11 54 0 4 6 1 7 -7 2 -9 -6 -12 -4 -8 6 4 11 -4
15 -38 15 -24 0 -44 -4 -44 -9 0 -5 -6 -5 -13 2 -10 7 -17 7 -24 0 -6 -6 -17
-8 -24 -3 -24 14 -97 13 -103 -3z m189 -3 c-3 -5 -12 -10 -18 -10 -7 0 -6 4 3
10 19 12 23 12 15 0z m45 4 c0 -8 -19 -13 -24 -6 -3 5 1 9 9 9 8 0 15 -2 15
-3z"/>
<path d="M1425 1219 c-3 -4 2 -6 10 -5 21 3 28 13 10 13 -9 0 -18 -4 -20 -8z"/>
<path d="M1546 1218 c3 -4 11 -5 19 -1 21 7 19 12 -4 10 -11 0 -18 -5 -15 -9z"/>
<path d="M1329 1203 c-13 -16 -12 -17 4 -4 16 13 21 21 13 21 -2 0 -10 -8 -17
-17z"/>
<path d="M4095 1211 c-3 -5 -2 -12 3 -15 5 -3 9 1 9 9 0 17 -3 19 -12 6z"/>
<path d="M3875 1200 c-3 -5 -2 -10 4 -10 5 0 13 5 16 10 3 6 2 10 -4 10 -5 0
-13 -4 -16 -10z"/>
<path d="M4000 1180 c-9 -6 -10 -10 -3 -10 6 0 15 5 18 10 8 12 4 12 -15 0z"/>
<path d="M4055 1180 c-3 -5 -1 -10 4 -10 6 0 11 5 11 10 0 6 -2 10 -4 10 -3 0
-8 -4 -11 -10z"/>
<path d="M3773 1163 c1 -17 4 -19 14 -11 15 12 18 22 4 14 -5 -4 -11 0 -14 6
-3 7 -4 3 -4 -9z"/>
<path d="M3730 1080 c0 -5 9 -8 20 -7 21 1 18 10 -5 13 -8 1 -15 -2 -15 -6z"/>
<path d="M3713 1017 c0 -8 6 -14 14 -14 9 0 10 4 2 14 -6 7 -12 13 -14 13 -1
0 -2 -6 -2 -13z"/>
<path d="M3718 983 c7 -3 16 -2 19 1 4 3 -2 6 -13 5 -11 0 -14 -3 -6 -6z"/>
<path d="M3714 944 c0 -13 4 -20 8 -18 5 3 5 10 2 16 -5 7 -2 9 8 6 8 -4 15 0
15 7 0 8 -8 13 -17 12 -10 0 -16 -10 -16 -23z"/>
<path d="M3714 895 c3 -24 12 -27 27 -8 9 11 10 14 2 9 -7 -4 -13 -2 -13 3 0
6 -4 11 -9 11 -5 0 -8 -7 -7 -15z"/>
<path d="M2870 886 c0 -2 7 -7 16 -10 8 -3 12 -2 9 4 -6 10 -25 14 -25 6z"/>
<path d="M3728 856 c-10 -7 -18 -17 -18 -21 0 -5 8 -1 18 8 10 10 22 14 27 10
4 -5 5 -2 1 5 -9 14 -7 15 -28 -2z"/>
<path d="M1830 856 c0 -2 8 -10 18 -17 15 -13 16 -12 3 4 -13 16 -21 21 -21
13z"/>
<path d="M2070 856 c0 -2 8 -10 18 -17 15 -13 16 -12 3 4 -13 16 -21 21 -21
13z"/>
<path d="M2390 856 c0 -2 8 -10 18 -17 15 -13 16 -12 3 4 -13 16 -21 21 -21
13z"/>
<path d="M3737 775 c-4 -8 -3 -16 1 -19 4 -3 9 4 9 15 2 23 -3 25 -10 4z"/>
<path d="M3354 749 c-2 -4 1 -11 7 -14 7 -5 4 -14 -9 -29 -18 -20 -27 -60 -11
-50 4 2 9 1 12 -3 2 -5 3 -3 1 3 -1 6 2 16 7 21 5 5 12 20 14 34 3 13 9 25 15
27 5 2 10 7 10 11 0 9 -40 9 -46 0z m4 -59 c-7 -10 -14 -17 -17 -15 -4 4 18
35 25 35 2 0 -1 -9 -8 -20z"/>
<path d="M3614 733 c-1 -13 2 -23 8 -23 5 0 6 5 3 10 -3 6 3 10 13 10 11 0 25
6 31 13 8 10 7 14 -4 14 -8 0 -12 -4 -9 -9 3 -4 -2 -8 -11 -8 -9 0 -14 4 -11
8 3 5 0 9 -7 9 -7 0 -13 -11 -13 -24z"/>
<path d="M3586 703 c-6 -14 -5 -15 5 -6 7 7 10 15 7 18 -3 3 -9 -2 -12 -12z"/>
<path d="M3391 684 c0 -11 3 -14 6 -6 3 7 2 16 -1 19 -3 4 -6 -2 -5 -13z"/>
<path d="M3331 627 c2 -1 15 -11 29 -22 l25 -20 -19 23 c-11 12 -24 22 -29 22
-6 0 -8 -1 -6 -3z"/>
<path d="M1355 560 c3 -5 8 -10 11 -10 2 0 4 5 4 10 0 6 -5 10 -11 10 -5 0 -7
-4 -4 -10z"/>
<path d="M3362 544 c10 -10 20 -16 22 -13 3 3 -5 11 -17 18 -21 13 -21 12 -5
-5z"/>
<path d="M3350 461 c0 -6 4 -12 8 -15 5 -3 9 1 9 9 0 8 -4 15 -9 15 -4 0 -8
-4 -8 -9z"/>
<path d="M3340 416 c0 -2 7 -7 16 -10 8 -3 12 -2 9 4 -6 10 -25 14 -25 6z"/>
<path d="M3330 396 c0 -3 9 -10 20 -16 11 -6 20 -8 20 -6 0 3 -9 10 -20 16
-11 6 -20 8 -20 6z"/>
<path d="M3356 335 c-11 -8 -15 -15 -9 -15 6 0 16 7 23 15 16 19 11 19 -14 0z"/>
<path d="M3375 320 c-3 -5 -1 -10 4 -10 6 0 11 5 11 10 0 6 -2 10 -4 10 -3 0
-8 -4 -11 -10z"/>
<path d="M3334 296 c-3 -8 -1 -23 5 -33 9 -15 10 -13 5 11 -5 22 -4 27 6 21 9
-5 11 -4 6 3 -10 16 -15 15 -22 -2z"/>
<path d="M1554 249 c-7 -12 3 -21 23 -20 5 0 14 -10 21 -22 13 -22 13 -21 6 3
-6 22 -5 23 10 11 9 -8 19 -11 23 -7 3 3 1 6 -6 6 -7 0 -9 5 -6 10 4 6 11 8
16 5 5 -4 9 -1 9 4 0 6 -3 11 -7 12 -5 0 -16 2 -25 4 -10 2 -21 -1 -24 -6 -4
-6 -11 -6 -19 1 -10 8 -15 8 -21 -1z m71 -8 c-9 -8 -36 -10 -30 -2 2 4 11 8
20 8 8 0 13 -3 10 -6z"/>
<path d="M1691 242 c-6 -12 -6 -23 0 -33 8 -12 10 -12 8 1 -3 28 1 41 11 35 5
-3 7 -12 4 -19 -3 -8 -2 -16 3 -19 4 -3 9 5 9 18 2 29 -22 41 -35 17z"/>
<path d="M1920 250 c-8 -5 -17 -7 -21 -4 -4 2 -11 -1 -15 -7 -4 -8 -9 -7 -15
2 -7 12 -9 12 -9 0 0 -11 -3 -11 -15 -1 -10 9 -15 9 -15 1 0 -10 7 -13 26 -10
4 0 10 -5 15 -12 6 -10 9 -9 15 4 6 16 8 17 24 2 16 -14 18 -14 23 -1 4 9 13
13 22 10 8 -4 15 -1 15 7 0 7 -3 9 -7 6 -3 -4 -11 -3 -17 3 -7 5 -18 5 -26 0z
m15 -10 c-3 -5 -12 -10 -18 -10 -7 0 -6 4 3 10 19 12 23 12 15 0z"/>
<path d="M2221 250 c-8 -4 -23 -7 -34 -5 -15 3 -17 1 -7 -10 6 -8 19 -11 27
-8 12 5 14 3 8 -8 -7 -12 -6 -12 7 -1 14 11 18 10 28 -5 9 -14 10 -14 7 -2 -3
9 -1 22 4 28 5 6 6 9 3 6 -4 -3 -12 -1 -18 5 -7 5 -18 5 -25 0z m23 -8 c3 -5
-1 -9 -9 -9 -8 0 -12 4 -9 9 3 4 7 8 9 8 2 0 6 -4 9 -8z"/>
<path d="M1426 242 c-3 -4 4 -9 15 -9 23 -2 25 3 4 10 -8 4 -16 3 -19 -1z"/>
<path d="M1476 233 c-6 -14 -5 -15 5 -6 7 7 10 15 7 18 -3 3 -9 -2 -12 -12z"/>
<path d="M1500 241 c0 -6 5 -11 11 -11 5 0 8 -4 5 -8 -2 -4 3 -13 13 -19 14
-9 18 -8 18 3 0 7 -5 11 -10 7 -5 -3 -7 5 -3 18 3 13 3 18 0 11 -5 -10 -9 -10
-20 -1 -10 8 -14 8 -14 0z"/>
<path d="M1984 237 c3 -10 6 -21 6 -23 0 -2 5 -4 11 -4 5 0 7 5 4 10 -4 6 3 9
16 7 23 -4 41 -34 31 -51 -3 -5 0 -6 6 -2 7 4 8 15 3 29 -5 12 -9 26 -10 32
-1 13 -51 14 -51 1 0 -6 -5 -4 -11 4 -9 12 -10 12 -5 -3z"/>
<path d="M2109 241 c-5 -37 -4 -49 3 -45 5 4 7 12 4 20 -3 8 -1 14 3 14 5 0
11 -6 14 -12 3 -7 5 -4 4 8 -1 18 -26 31 -28 15z"/>
<path d="M2277 235 c-4 -10 -3 -23 3 -29 8 -8 9 -5 4 9 -7 18 -6 18 9 7 9 -8
22 -10 29 -6 7 5 26 9 41 10 l28 2 -21 -23 c-17 -18 -19 -25 -8 -31 7 -4 10
-3 5 1 -4 5 3 19 15 32 23 24 44 32 32 11 -5 -8 0 -7 11 2 17 14 18 13 12 -5
-7 -18 -6 -19 6 -3 8 10 17 15 21 11 4 -4 4 1 0 11 -5 14 -9 15 -15 4 -7 -10
-9 -10 -9 2 0 13 -1 13 -10 0 -8 -12 -10 -12 -10 -1 0 10 -3 11 -13 2 -10 -8
-17 -7 -25 1 -9 9 -12 9 -12 0 0 -7 -5 -12 -11 -12 -5 0 -8 4 -5 8 3 5 -1 9
-9 9 -8 0 -16 -6 -19 -14 -3 -7 -10 -13 -16 -13 -6 0 -8 5 -4 12 4 6 3 8 -4 4
-5 -3 -12 -1 -14 6 -3 7 -7 4 -11 -7z"/>
<path d="M2630 241 c0 -10 7 -13 26 -10 4 0 10 -5 14 -11 6 -9 12 -6 21 11 11
21 11 23 -3 11 -13 -10 -17 -10 -21 0 -4 10 -6 10 -6 -1 -1 -11 -4 -11 -16 -1
-10 9 -15 9 -15 1z"/>
<path d="M2944 237 c3 -10 6 -21 6 -23 0 -2 5 -4 11 -4 5 0 7 5 4 10 -4 6 3 9
16 7 23 -4 41 -34 31 -51 -3 -5 0 -6 6 -2 7 4 8 15 3 29 -5 12 -9 26 -10 32
-1 13 -51 14 -51 1 0 -6 -5 -4 -11 4 -9 12 -10 12 -5 -3z"/>
<path d="M3069 241 c-5 -37 -4 -49 3 -45 5 4 7 12 4 20 -3 8 -1 14 3 14 5 0
11 -6 14 -12 3 -7 5 -4 4 8 -1 18 -26 31 -28 15z"/>
<path d="M3258 243 c6 -3 12 -9 12 -14 0 -6 -5 -7 -12 -3 -7 5 -8 3 -4 -5 6
-9 12 -9 25 3 10 9 21 13 24 9 4 -3 7 -2 7 4 0 5 -15 10 -32 10 -18 0 -27 -2
-20 -4z"/>
<path d="M1492 196 c1 -14 5 -23 9 -20 7 4 0 44 -7 44 -2 0 -3 -11 -2 -24z"/>
<path d="M1941 204 c0 -11 3 -14 6 -6 3 7 2 16 -1 19 -3 4 -6 -2 -5 -13z"/>
<path d="M1970 211 c0 -6 4 -13 10 -16 6 -3 7 1 4 9 -7 18 -14 21 -14 7z"/>
<path d="M2901 204 c0 -11 3 -14 6 -6 3 7 2 16 -1 19 -3 4 -6 -2 -5 -13z"/>
<path d="M2933 201 c0 -11 5 -18 9 -15 4 3 5 11 1 19 -7 21 -12 19 -10 -4z"/>
<path d="M1670 201 c0 -6 4 -13 10 -16 6 -3 7 1 4 9 -7 18 -14 21 -14 7z"/>
<path d="M1836 193 c-6 -14 -5 -15 5 -6 7 7 10 15 7 18 -3 3 -9 -2 -12 -12z"/>
<path d="M1890 199 c0 -5 5 -7 10 -4 6 3 10 8 10 11 0 2 -4 4 -10 4 -5 0 -10
-5 -10 -11z"/>
<path d="M2016 202 c-2 -4 -1 -14 4 -22 7 -11 9 -9 7 8 -1 24 -3 26 -11 14z"/>
<path d="M2230 201 c0 -6 4 -13 10 -16 6 -3 7 1 4 9 -7 18 -14 21 -14 7z"/>
<path d="M2459 208 c-6 -21 -5 -37 2 -32 5 3 6 10 3 16 -5 8 -1 9 10 5 10 -4
15 -3 11 3 -5 9 -24 14 -26 8z"/>
<path d="M2637 195 c-4 -8 -3 -16 1 -19 4 -3 9 4 9 15 2 23 -3 25 -10 4z"/>
<path d="M2690 202 c0 -5 7 -9 15 -9 8 0 12 4 9 9 -3 4 -9 8 -15 8 -5 0 -9 -4
-9 -8z"/>
<path d="M2976 202 c-2 -4 -1 -14 4 -22 7 -11 9 -9 7 8 -1 24 -3 26 -11 14z"/>
<path d="M3135 200 c3 -5 8 -10 11 -10 2 0 4 5 4 10 0 6 -5 10 -11 10 -5 0 -7
-4 -4 -10z"/>
<path d="M3236 202 c-3 -5 1 -9 9 -9 8 0 12 4 9 9 -3 4 -7 8 -9 8 -2 0 -6 -4
-9 -8z"/>
<path d="M2413 185 c0 -8 4 -12 9 -9 5 3 6 10 3 15 -9 13 -12 11 -12 -6z"/>
<path d="M1750 176 c7 -7 13 -7 20 0 6 6 3 10 -10 10 -13 0 -16 -4 -10 -10z"/>
<path d="M2556 178 c3 -5 10 -6 15 -3 13 9 11 12 -6 12 -8 0 -12 -4 -9 -9z"/>
</g>
</svg>
